<svg xmlns="http://www.w3.org/2000/svg" viewBox="0 0 900 675" role="img" aria-label="city lights memory">
  <defs>
    <linearGradient id="g" x1="0" x2="1" y1="0" y2="1">
      <stop stop-color="#1f2033"/>
      <stop offset=".52" stop-color="#283f5f"/>
      <stop offset="1" stop-color="#ff7f8f"/>
    </linearGradient>
  </defs>
  <rect width="900" height="675" fill="url(#g)"/>
  <circle cx="720" cy="118" r="54" fill="#ffe3a3"/>
  <g fill="#12131c">
    <rect x="80" y="350" width="90" height="240"/>
    <rect x="210" y="280" width="120" height="310"/>
    <rect x="380" y="330" width="80" height="260"/>
    <rect x="520" y="250" width="142" height="340"/>
    <rect x="710" y="378" width="86" height="212"/>
  </g>
  <g fill="#ffd166" opacity=".88">
    <rect x="105" y="380" width="18" height="28"/>
    <rect x="250" y="320" width="18" height="28"/>
    <rect x="560" y="292" width="18" height="28"/>
    <rect x="610" y="410" width="18" height="28"/>
    <rect x="742" y="420" width="18" height="28"/>
  </g>
  <path d="M0 585C165 530 252 642 420 586c168-56 294-40 480 22v67H0z" fill="#0f1018" opacity=".9"/>
</svg>
